<?xml version="1.0" encoding="utf-8"?>
<!-- Generator: Adobe Illustrator 23.0.2, SVG Export Plug-In . SVG Version: 6.00 Build 0)  -->
<svg version="1.1" id="Layer_1" xmlns="http://www.w3.org/2000/svg" xmlns:xlink="http://www.w3.org/1999/xlink" x="0px" y="0px"
	 width="100px" height="100px" viewBox="0 0 100 100" style="enable-background:new 0 0 100 100;" xml:space="preserve">
<style type="text/css">
	.st0{fill-rule:evenodd;clip-rule:evenodd;fill:url(#SVGID_1_);}
	.st1{fill-rule:evenodd;clip-rule:evenodd;fill:#FF5C5E;}
</style>
<linearGradient id="SVGID_1_" gradientUnits="userSpaceOnUse" x1="12" y1="49.5" x2="88.3475" y2="49.5">
	<stop  offset="0" style="stop-color:#FF2452"/>
	<stop  offset="0.1472" style="stop-color:#FF2D54"/>
	<stop  offset="0.3921" style="stop-color:#FF475A"/>
	<stop  offset="0.7022" style="stop-color:#FF7063"/>
	<stop  offset="0.9944" style="stop-color:#FF9D6D"/>
</linearGradient>
<path class="st0" d="M61.55,13.21c7.34,6.85,14.44,14.44,21.66,21.54c0.73,0.74,1.22,2.45,1.22,3.19c0,2.44-1.47,3.55-4.4,6.49
	l-2.24,2.19c-4.39-4.44-8.82-8.83-13.3-13.08C57.76,27.29,55.8,23,49.93,23c-1.22,0-3.18,0.24-4.4,1.1
	c-0.49,0.25-1.22,0.61-1.59,1.11c-7.23,7.05-14.25,14.4-21.39,21.51c-1.98-1.98-3.94-3.98-5.89-5.97c-0.61-0.73-0.73-1.95-0.73-2.81
	c0-2.33,1.22-3.43,3.91-6C28.76,23,37.7,13.95,46.62,5.14c0.86-0.98,2.45-1.22,3.31-1.22C53.85,3.92,57.76,9.79,61.55,13.21z
	 M74.93,49.44c-7.38,7.32-14.6,14.69-22.07,21.65c-0.86,0.74-2.08,0.98-2.94,0.98c-2.08,0-3.67-1.59-6-3.92
	C37.84,61.9,31.52,55.7,25.29,49.47c7.11-7.14,14.22-14.31,21.34-21.33c0.86-0.98,2.45-1.22,3.31-1.22c3.92,0,7.83,5.87,11.62,9.3
	C66.07,40.45,70.5,44.94,74.93,49.44z M64.49,10.52C57.76,4.29,55.8,0,49.93,0c-1.22,0-3.18,0.24-4.4,1.1
	c-0.49,0.24-1.22,0.61-1.59,1.11c-9.3,9.05-18.23,18.6-27.53,27.53c-2.45,2.21-4.04,4.66-4.4,6.74v3.05c0,1.59,1.59,3.67,1.71,3.92
	l5.98,6.1c-1.09,1.07-2.19,2.14-3.29,3.2c-2.45,2.2-4.04,4.65-4.4,6.73v3.05c0,2.07,1.59,3.67,1.71,3.92
	c9.67,9.92,19.58,19.83,29.49,29.62c2.32,2.32,4.4,2.94,6.73,2.94c1.34,0,3.42-0.37,4.89-1.47c0.5-0.37,1.22-0.86,1.84-1.34
	c9.05-8.94,17.86-18.11,27.04-26.81c3.05-2.94,4.65-5.5,4.65-8.44c0-1.1,0-1.71-0.61-3.18c-0.37-0.74-0.61-1.59-1.22-2.21
	c-1.98-2.06-3.98-4.1-5.98-6.15c1.06-1.02,2.11-2.02,3.17-3.03c3.05-2.94,4.65-5.5,4.65-8.44c0-1.11,0-1.72-0.61-3.19
	c-0.37-0.73-0.61-1.59-1.22-2.2C79.29,25.09,71.95,17.62,64.49,10.52z M22.45,52.33c6.86,6.95,13.81,13.87,20.76,20.73
	c2.32,2.32,4.4,2.94,6.73,2.94c1.34,0,3.42-0.37,4.89-1.47c0.5-0.37,1.22-0.86,1.84-1.35c7.05-6.96,13.95-14.06,21-20.97
	c1.85,1.86,3.69,3.73,5.55,5.55c0.73,0.73,1.22,2.44,1.22,3.18c0,2.45-1.47,3.55-4.4,6.49c-9.17,8.94-17.98,18.11-27.16,26.68
	c-0.86,0.73-2.08,0.97-2.94,0.97c-2.08,0-3.67-1.59-6-3.91C35,81.99,25.58,72.93,16.65,63.75c-0.61-0.73-0.73-1.95-0.73-2.81
	c0-2.32,1.22-3.43,3.91-6L22.45,52.33z"/>
<path class="st1" d="M51.31,35.87l12.48,12.11c0.86,0.84,0.86,2.2,0,3.04L51.31,63.13c-0.86,0.84-2.26,0.84-3.12,0L35.72,51.02
	c-0.86-0.84-0.86-2.2,0-3.04l12.48-12.11C49.06,35.03,50.45,35.03,51.31,35.87z"/>
</svg>
